# xmcd
#
# Track frame offsets:
#	150
#	16468
#	36989
#	51812
#	67330
#	82965
#	98818
#	121057
#	141663
#	165138
#	196961
#
# Disc length: 2899
#
# Revision: 2
# Processed by: cddbd v1.5.1PL0 Copyright (c) Steve Scherf et al.
# Submitted via: CDex 1.40Beta9
# Normalized: r1:TDELIM( - )
#
DISCID=930b510b
DTITLE=Various Artist - Ten Man Acoustic Jam [CD1]
DYEAR=2001
DGENRE=Country
TTITLE0=Darryl Worley - A Good Day To Run (Acoustic)
TTITLE1=Roger Creager - The Morning (Acoustic)
TTITLE2=Chris Cagle - My Love Goes On And On (Acoustic)
TTITLE3=David Ball - When The Thought Of You Catches Up With Me (Acoustic)
TTITLE4=Lee Roy Parnell - South By Southwest (Acoustic)
TTITLE5=Darryl Worley - Second Wind (Acoustic)
TTITLE6=Roger Creager - The Everclear Song (Acoustic)
TTITLE7=I Breathe In, I Breathe Out - Chris Cagle (Acoustic)
TTITLE8=David Ball - Riding With Private Malone (Acoustic)
TTITLE9=Lee Roy Parnell - I'm Holding My Own (Acoustic)
TTITLE10=Finale Performance - "T" For Texas (Acoustic)
EXTD=YEAR: 2001 ID3G: 2
EXTT0=
EXTT1=
EXTT2=
EXTT3=
EXTT4=
EXTT5=
EXTT6=
EXTT7=
EXTT8=
EXTT9=
EXTT10=
PLAYORDER=
